<svg viewBox="0 0 782 158" width="782" height="158" xmlns="http://www.w3.org/2000/svg">
<rect width="782" height="158" rx="10" fill="#0d1117"/>
<style>text { font-family: "Courier New", monospace; fill: #c9d1d9; }</style>
<text x="30" y="20" font-size="13">contributions (last 12 months): 1263</text>
<rect x="30" y="30" width="11" height="11" rx="2" fill="#0e4429"><title>2025-07-20: 1</title></rect>
<rect x="30" y="44" width="11" height="11" rx="2" fill="#006d32"><title>2025-07-21: 5</title></rect>
<rect x="30" y="58" width="11" height="11" rx="2" fill="#161b22"><title>2025-07-22: 0</title></rect>
<rect x="30" y="72" width="11" height="11" rx="2" fill="#006d32"><title>2025-07-23: 4</title></rect>
<rect x="30" y="86" width="11" height="11" rx="2" fill="#0e4429"><title>2025-07-24: 1</title></rect>
<rect x="30" y="100" width="11" height="11" rx="2" fill="#161b22"><title>2025-07-25: 0</title></rect>
<rect x="30" y="114" width="11" height="11" rx="2" fill="#161b22"><title>2025-07-26: 0</title></rect>
<rect x="44" y="30" width="11" height="11" rx="2" fill="#0e4429"><title>2025-07-27: 1</title></rect>
<rect x="44" y="44" width="11" height="11" rx="2" fill="#0e4429"><title>2025-07-28: 3</title></rect>
<rect x="44" y="58" width="11" height="11" rx="2" fill="#0e4429"><title>2025-07-29: 3</title></rect>
<rect x="44" y="72" width="11" height="11" rx="2" fill="#0e4429"><title>2025-07-30: 2</title></rect>
<rect x="44" y="86" width="11" height="11" rx="2" fill="#0e4429"><title>2025-07-31: 1</title></rect>
<rect x="44" y="100" width="11" height="11" rx="2" fill="#006d32"><title>2025-08-01: 5</title></rect>
<rect x="44" y="114" width="11" height="11" rx="2" fill="#006d32"><title>2025-08-02: 6</title></rect>
<rect x="58" y="30" width="11" height="11" rx="2" fill="#161b22"><title>2025-08-03: 0</title></rect>
<rect x="58" y="44" width="11" height="11" rx="2" fill="#161b22"><title>2025-08-04: 0</title></rect>
<rect x="58" y="58" width="11" height="11" rx="2" fill="#006d32"><title>2025-08-05: 4</title></rect>
<rect x="58" y="72" width="11" height="11" rx="2" fill="#161b22"><title>2025-08-06: 0</title></rect>
<rect x="58" y="86" width="11" height="11" rx="2" fill="#161b22"><title>2025-08-07: 0</title></rect>
<rect x="58" y="100" width="11" height="11" rx="2" fill="#006d32"><title>2025-08-08: 6</title></rect>
<rect x="58" y="114" width="11" height="11" rx="2" fill="#006d32"><title>2025-08-09: 7</title></rect>
<rect x="72" y="30" width="11" height="11" rx="2" fill="#0e4429"><title>2025-08-10: 2</title></rect>
<rect x="72" y="44" width="11" height="11" rx="2" fill="#161b22"><title>2025-08-11: 0</title></rect>
<rect x="72" y="58" width="11" height="11" rx="2" fill="#161b22"><title>2025-08-12: 0</title></rect>
<rect x="72" y="72" width="11" height="11" rx="2" fill="#0e4429"><title>2025-08-13: 2</title></rect>
<rect x="72" y="86" width="11" height="11" rx="2" fill="#0e4429"><title>2025-08-14: 3</title></rect>
<rect x="72" y="100" width="11" height="11" rx="2" fill="#161b22"><title>2025-08-15: 0</title></rect>
<rect x="72" y="114" width="11" height="11" rx="2" fill="#006d32"><title>2025-08-16: 6</title></rect>
<rect x="86" y="30" width="11" height="11" rx="2" fill="#26a641"><title>2025-08-17: 11</title></rect>
<rect x="86" y="44" width="11" height="11" rx="2" fill="#006d32"><title>2025-08-18: 7</title></rect>
<rect x="86" y="58" width="11" height="11" rx="2" fill="#161b22"><title>2025-08-19: 0</title></rect>
<rect x="86" y="72" width="11" height="11" rx="2" fill="#0e4429"><title>2025-08-20: 2</title></rect>
<rect x="86" y="86" width="11" height="11" rx="2" fill="#161b22"><title>2025-08-21: 0</title></rect>
<rect x="86" y="100" width="11" height="11" rx="2" fill="#0e4429"><title>2025-08-22: 3</title></rect>
<rect x="86" y="114" width="11" height="11" rx="2" fill="#161b22"><title>2025-08-23: 0</title></rect>
<rect x="100" y="30" width="11" height="11" rx="2" fill="#26a641"><title>2025-08-24: 9</title></rect>
<rect x="100" y="44" width="11" height="11" rx="2" fill="#0e4429"><title>2025-08-25: 1</title></rect>
<rect x="100" y="58" width="11" height="11" rx="2" fill="#0e4429"><title>2025-08-26: 1</title></rect>
<rect x="100" y="72" width="11" height="11" rx="2" fill="#161b22"><title>2025-08-27: 0</title></rect>
<rect x="100" y="86" width="11" height="11" rx="2" fill="#0e4429"><title>2025-08-28: 3</title></rect>
<rect x="100" y="100" width="11" height="11" rx="2" fill="#006d32"><title>2025-08-29: 5</title></rect>
<rect x="100" y="114" width="11" height="11" rx="2" fill="#006d32"><title>2025-08-30: 4</title></rect>
<rect x="114" y="30" width="11" height="11" rx="2" fill="#161b22"><title>2025-08-31: 0</title></rect>
<rect x="114" y="44" width="11" height="11" rx="2" fill="#161b22"><title>2025-09-01: 0</title></rect>
<rect x="114" y="58" width="11" height="11" rx="2" fill="#161b22"><title>2025-09-02: 0</title></rect>
<rect x="114" y="72" width="11" height="11" rx="2" fill="#161b22"><title>2025-09-03: 0</title></rect>
<rect x="114" y="86" width="11" height="11" rx="2" fill="#161b22"><title>2025-09-04: 0</title></rect>
<rect x="114" y="100" width="11" height="11" rx="2" fill="#39d353"><title>2025-09-05: 13</title></rect>
<rect x="114" y="114" width="11" height="11" rx="2" fill="#161b22"><title>2025-09-06: 0</title></rect>
<rect x="128" y="30" width="11" height="11" rx="2" fill="#0e4429"><title>2025-09-07: 3</title></rect>
<rect x="128" y="44" width="11" height="11" rx="2" fill="#0e4429"><title>2025-09-08: 2</title></rect>
<rect x="128" y="58" width="11" height="11" rx="2" fill="#161b22"><title>2025-09-09: 0</title></rect>
<rect x="128" y="72" width="11" height="11" rx="2" fill="#006d32"><title>2025-09-10: 6</title></rect>
<rect x="128" y="86" width="11" height="11" rx="2" fill="#006d32"><title>2025-09-11: 7</title></rect>
<rect x="128" y="100" width="11" height="11" rx="2" fill="#39d353"><title>2025-09-12: 14</title></rect>
<rect x="128" y="114" width="11" height="11" rx="2" fill="#0e4429"><title>2025-09-13: 1</title></rect>
<rect x="142" y="30" width="11" height="11" rx="2" fill="#0e4429"><title>2025-09-14: 1</title></rect>
<rect x="142" y="44" width="11" height="11" rx="2" fill="#006d32"><title>2025-09-15: 4</title></rect>
<rect x="142" y="58" width="11" height="11" rx="2" fill="#161b22"><title>2025-09-16: 0</title></rect>
<rect x="142" y="72" width="11" height="11" rx="2" fill="#161b22"><title>2025-09-17: 0</title></rect>
<rect x="142" y="86" width="11" height="11" rx="2" fill="#006d32"><title>2025-09-18: 4</title></rect>
<rect x="142" y="100" width="11" height="11" rx="2" fill="#0e4429"><title>2025-09-19: 3</title></rect>
<rect x="142" y="114" width="11" height="11" rx="2" fill="#39d353"><title>2025-09-20: 12</title></rect>
<rect x="156" y="30" width="11" height="11" rx="2" fill="#26a641"><title>2025-09-21: 8</title></rect>
<rect x="156" y="44" width="11" height="11" rx="2" fill="#006d32"><title>2025-09-22: 4</title></rect>
<rect x="156" y="58" width="11" height="11" rx="2" fill="#006d32"><title>2025-09-23: 6</title></rect>
<rect x="156" y="72" width="11" height="11" rx="2" fill="#006d32"><title>2025-09-24: 6</title></rect>
<rect x="156" y="86" width="11" height="11" rx="2" fill="#161b22"><title>2025-09-25: 0</title></rect>
<rect x="156" y="100" width="11" height="11" rx="2" fill="#0e4429"><title>2025-09-26: 2</title></rect>
<rect x="156" y="114" width="11" height="11" rx="2" fill="#161b22"><title>2025-09-27: 0</title></rect>
<rect x="170" y="30" width="11" height="11" rx="2" fill="#006d32"><title>2025-09-28: 6</title></rect>
<rect x="170" y="44" width="11" height="11" rx="2" fill="#26a641"><title>2025-09-29: 10</title></rect>
<rect x="170" y="58" width="11" height="11" rx="2" fill="#0e4429"><title>2025-09-30: 1</title></rect>
<rect x="170" y="72" width="11" height="11" rx="2" fill="#006d32"><title>2025-10-01: 6</title></rect>
<rect x="170" y="86" width="11" height="11" rx="2" fill="#006d32"><title>2025-10-02: 5</title></rect>
<rect x="170" y="100" width="11" height="11" rx="2" fill="#161b22"><title>2025-10-03: 0</title></rect>
<rect x="170" y="114" width="11" height="11" rx="2" fill="#006d32"><title>2025-10-04: 4</title></rect>
<rect x="184" y="30" width="11" height="11" rx="2" fill="#0e4429"><title>2025-10-05: 2</title></rect>
<rect x="184" y="44" width="11" height="11" rx="2" fill="#161b22"><title>2025-10-06: 0</title></rect>
<rect x="184" y="58" width="11" height="11" rx="2" fill="#39d353"><title>2025-10-07: 12</title></rect>
<rect x="184" y="72" width="11" height="11" rx="2" fill="#161b22"><title>2025-10-08: 0</title></rect>
<rect x="184" y="86" width="11" height="11" rx="2" fill="#161b22"><title>2025-10-09: 0</title></rect>
<rect x="184" y="100" width="11" height="11" rx="2" fill="#0e4429"><title>2025-10-10: 1</title></rect>
<rect x="184" y="114" width="11" height="11" rx="2" fill="#161b22"><title>2025-10-11: 0</title></rect>
<rect x="198" y="30" width="11" height="11" rx="2" fill="#0e4429"><title>2025-10-12: 1</title></rect>
<rect x="198" y="44" width="11" height="11" rx="2" fill="#26a641"><title>2025-10-13: 10</title></rect>
<rect x="198" y="58" width="11" height="11" rx="2" fill="#161b22"><title>2025-10-14: 0</title></rect>
<rect x="198" y="72" width="11" height="11" rx="2" fill="#0e4429"><title>2025-10-15: 3</title></rect>
<rect x="198" y="86" width="11" height="11" rx="2" fill="#161b22"><title>2025-10-16: 0</title></rect>
<rect x="198" y="100" width="11" height="11" rx="2" fill="#0e4429"><title>2025-10-17: 3</title></rect>
<rect x="198" y="114" width="11" height="11" rx="2" fill="#0e4429"><title>2025-10-18: 1</title></rect>
<rect x="212" y="30" width="11" height="11" rx="2" fill="#26a641"><title>2025-10-19: 11</title></rect>
<rect x="212" y="44" width="11" height="11" rx="2" fill="#006d32"><title>2025-10-20: 7</title></rect>
<rect x="212" y="58" width="11" height="11" rx="2" fill="#39d353"><title>2025-10-21: 13</title></rect>
<rect x="212" y="72" width="11" height="11" rx="2" fill="#0e4429"><title>2025-10-22: 3</title></rect>
<rect x="212" y="86" width="11" height="11" rx="2" fill="#0e4429"><title>2025-10-23: 1</title></rect>
<rect x="212" y="100" width="11" height="11" rx="2" fill="#161b22"><title>2025-10-24: 0</title></rect>
<rect x="212" y="114" width="11" height="11" rx="2" fill="#161b22"><title>2025-10-25: 0</title></rect>
<rect x="226" y="30" width="11" height="11" rx="2" fill="#0e4429"><title>2025-10-26: 1</title></rect>
<rect x="226" y="44" width="11" height="11" rx="2" fill="#0e4429"><title>2025-10-27: 1</title></rect>
<rect x="226" y="58" width="11" height="11" rx="2" fill="#161b22"><title>2025-10-28: 0</title></rect>
<rect x="226" y="72" width="11" height="11" rx="2" fill="#0e4429"><title>2025-10-29: 1</title></rect>
<rect x="226" y="86" width="11" height="11" rx="2" fill="#161b22"><title>2025-10-30: 0</title></rect>
<rect x="226" y="100" width="11" height="11" rx="2" fill="#161b22"><title>2025-10-31: 0</title></rect>
<rect x="226" y="114" width="11" height="11" rx="2" fill="#161b22"><title>2025-11-01: 0</title></rect>
<rect x="240" y="30" width="11" height="11" rx="2" fill="#0e4429"><title>2025-11-02: 2</title></rect>
<rect x="240" y="44" width="11" height="11" rx="2" fill="#006d32"><title>2025-11-03: 5</title></rect>
<rect x="240" y="58" width="11" height="11" rx="2" fill="#0e4429"><title>2025-11-04: 3</title></rect>
<rect x="240" y="72" width="11" height="11" rx="2" fill="#39d353"><title>2025-11-05: 15</title></rect>
<rect x="240" y="86" width="11" height="11" rx="2" fill="#161b22"><title>2025-11-06: 0</title></rect>
<rect x="240" y="100" width="11" height="11" rx="2" fill="#0e4429"><title>2025-11-07: 2</title></rect>
<rect x="240" y="114" width="11" height="11" rx="2" fill="#161b22"><title>2025-11-08: 0</title></rect>
<rect x="254" y="30" width="11" height="11" rx="2" fill="#161b22"><title>2025-11-09: 0</title></rect>
<rect x="254" y="44" width="11" height="11" rx="2" fill="#0e4429"><title>2025-11-10: 2</title></rect>
<rect x="254" y="58" width="11" height="11" rx="2" fill="#0e4429"><title>2025-11-11: 3</title></rect>
<rect x="254" y="72" width="11" height="11" rx="2" fill="#161b22"><title>2025-11-12: 0</title></rect>
<rect x="254" y="86" width="11" height="11" rx="2" fill="#006d32"><title>2025-11-13: 4</title></rect>
<rect x="254" y="100" width="11" height="11" rx="2" fill="#161b22"><title>2025-11-14: 0</title></rect>
<rect x="254" y="114" width="11" height="11" rx="2" fill="#006d32"><title>2025-11-15: 4</title></rect>
<rect x="268" y="30" width="11" height="11" rx="2" fill="#161b22"><title>2025-11-16: 0</title></rect>
<rect x="268" y="44" width="11" height="11" rx="2" fill="#161b22"><title>2025-11-17: 0</title></rect>
<rect x="268" y="58" width="11" height="11" rx="2" fill="#0e4429"><title>2025-11-18: 2</title></rect>
<rect x="268" y="72" width="11" height="11" rx="2" fill="#161b22"><title>2025-11-19: 0</title></rect>
<rect x="268" y="86" width="11" height="11" rx="2" fill="#0e4429"><title>2025-11-20: 1</title></rect>
<rect x="268" y="100" width="11" height="11" rx="2" fill="#0e4429"><title>2025-11-21: 3</title></rect>
<rect x="268" y="114" width="11" height="11" rx="2" fill="#161b22"><title>2025-11-22: 0</title></rect>
<rect x="282" y="30" width="11" height="11" rx="2" fill="#006d32"><title>2025-11-23: 4</title></rect>
<rect x="282" y="44" width="11" height="11" rx="2" fill="#26a641"><title>2025-11-24: 11</title></rect>
<rect x="282" y="58" width="11" height="11" rx="2" fill="#161b22"><title>2025-11-25: 0</title></rect>
<rect x="282" y="72" width="11" height="11" rx="2" fill="#0e4429"><title>2025-11-26: 1</title></rect>
<rect x="282" y="86" width="11" height="11" rx="2" fill="#006d32"><title>2025-11-27: 4</title></rect>
<rect x="282" y="100" width="11" height="11" rx="2" fill="#161b22"><title>2025-11-28: 0</title></rect>
<rect x="282" y="114" width="11" height="11" rx="2" fill="#161b22"><title>2025-11-29: 0</title></rect>
<rect x="296" y="30" width="11" height="11" rx="2" fill="#0e4429"><title>2025-11-30: 2</title></rect>
<rect x="296" y="44" width="11" height="11" rx="2" fill="#161b22"><title>2025-12-01: 0</title></rect>
<rect x="296" y="58" width="11" height="11" rx="2" fill="#006d32"><title>2025-12-02: 7</title></rect>
<rect x="296" y="72" width="11" height="11" rx="2" fill="#161b22"><title>2025-12-03: 0</title></rect>
<rect x="296" y="86" width="11" height="11" rx="2" fill="#161b22"><title>2025-12-04: 0</title></rect>
<rect x="296" y="100" width="11" height="11" rx="2" fill="#26a641"><title>2025-12-05: 8</title></rect>
<rect x="296" y="114" width="11" height="11" rx="2" fill="#006d32"><title>2025-12-06: 4</title></rect>
<rect x="310" y="30" width="11" height="11" rx="2" fill="#161b22"><title>2025-12-07: 0</title></rect>
<rect x="310" y="44" width="11" height="11" rx="2" fill="#0e4429"><title>2025-12-08: 3</title></rect>
<rect x="310" y="58" width="11" height="11" rx="2" fill="#161b22"><title>2025-12-09: 0</title></rect>
<rect x="310" y="72" width="11" height="11" rx="2" fill="#26a641"><title>2025-12-10: 9</title></rect>
<rect x="310" y="86" width="11" height="11" rx="2" fill="#006d32"><title>2025-12-11: 4</title></rect>
<rect x="310" y="100" width="11" height="11" rx="2" fill="#0e4429"><title>2025-12-12: 3</title></rect>
<rect x="310" y="114" width="11" height="11" rx="2" fill="#006d32"><title>2025-12-13: 7</title></rect>
<rect x="324" y="30" width="11" height="11" rx="2" fill="#161b22"><title>2025-12-14: 0</title></rect>
<rect x="324" y="44" width="11" height="11" rx="2" fill="#26a641"><title>2025-12-15: 11</title></rect>
<rect x="324" y="58" width="11" height="11" rx="2" fill="#0e4429"><title>2025-12-16: 1</title></rect>
<rect x="324" y="72" width="11" height="11" rx="2" fill="#0e4429"><title>2025-12-17: 2</title></rect>
<rect x="324" y="86" width="11" height="11" rx="2" fill="#006d32"><title>2025-12-18: 6</title></rect>
<rect x="324" y="100" width="11" height="11" rx="2" fill="#26a641"><title>2025-12-19: 11</title></rect>
<rect x="324" y="114" width="11" height="11" rx="2" fill="#006d32"><title>2025-12-20: 6</title></rect>
<rect x="338" y="30" width="11" height="11" rx="2" fill="#161b22"><title>2025-12-21: 0</title></rect>
<rect x="338" y="44" width="11" height="11" rx="2" fill="#0e4429"><title>2025-12-22: 3</title></rect>
<rect x="338" y="58" width="11" height="11" rx="2" fill="#0e4429"><title>2025-12-23: 2</title></rect>
<rect x="338" y="72" width="11" height="11" rx="2" fill="#161b22"><title>2025-12-24: 0</title></rect>
<rect x="338" y="86" width="11" height="11" rx="2" fill="#006d32"><title>2025-12-25: 4</title></rect>
<rect x="338" y="100" width="11" height="11" rx="2" fill="#161b22"><title>2025-12-26: 0</title></rect>
<rect x="338" y="114" width="11" height="11" rx="2" fill="#0e4429"><title>2025-12-27: 3</title></rect>
<rect x="352" y="30" width="11" height="11" rx="2" fill="#26a641"><title>2025-12-28: 9</title></rect>
<rect x="352" y="44" width="11" height="11" rx="2" fill="#0e4429"><title>2025-12-29: 3</title></rect>
<rect x="352" y="58" width="11" height="11" rx="2" fill="#161b22"><title>2025-12-30: 0</title></rect>
<rect x="352" y="72" width="11" height="11" rx="2" fill="#26a641"><title>2025-12-31: 9</title></rect>
<rect x="352" y="86" width="11" height="11" rx="2" fill="#006d32"><title>2026-01-01: 6</title></rect>
<rect x="352" y="100" width="11" height="11" rx="2" fill="#161b22"><title>2026-01-02: 0</title></rect>
<rect x="352" y="114" width="11" height="11" rx="2" fill="#0e4429"><title>2026-01-03: 3</title></rect>
<rect x="366" y="30" width="11" height="11" rx="2" fill="#006d32"><title>2026-01-04: 4</title></rect>
<rect x="366" y="44" width="11" height="11" rx="2" fill="#006d32"><title>2026-01-05: 6</title></rect>
<rect x="366" y="58" width="11" height="11" rx="2" fill="#26a641"><title>2026-01-06: 9</title></rect>
<rect x="366" y="72" width="11" height="11" rx="2" fill="#26a641"><title>2026-01-07: 10</title></rect>
<rect x="366" y="86" width="11" height="11" rx="2" fill="#161b22"><title>2026-01-08: 0</title></rect>
<rect x="366" y="100" width="11" height="11" rx="2" fill="#26a641"><title>2026-01-09: 10</title></rect>
<rect x="366" y="114" width="11" height="11" rx="2" fill="#161b22"><title>2026-01-10: 0</title></rect>
<rect x="380" y="30" width="11" height="11" rx="2" fill="#0e4429"><title>2026-01-11: 3</title></rect>
<rect x="380" y="44" width="11" height="11" rx="2" fill="#161b22"><title>2026-01-12: 0</title></rect>
<rect x="380" y="58" width="11" height="11" rx="2" fill="#006d32"><title>2026-01-13: 6</title></rect>
<rect x="380" y="72" width="11" height="11" rx="2" fill="#0e4429"><title>2026-01-14: 2</title></rect>
<rect x="380" y="86" width="11" height="11" rx="2" fill="#26a641"><title>2026-01-15: 8</title></rect>
<rect x="380" y="100" width="11" height="11" rx="2" fill="#161b22"><title>2026-01-16: 0</title></rect>
<rect x="380" y="114" width="11" height="11" rx="2" fill="#0e4429"><title>2026-01-17: 2</title></rect>
<rect x="394" y="30" width="11" height="11" rx="2" fill="#161b22"><title>2026-01-18: 0</title></rect>
<rect x="394" y="44" width="11" height="11" rx="2" fill="#161b22"><title>2026-01-19: 0</title></rect>
<rect x="394" y="58" width="11" height="11" rx="2" fill="#161b22"><title>2026-01-20: 0</title></rect>
<rect x="394" y="72" width="11" height="11" rx="2" fill="#26a641"><title>2026-01-21: 10</title></rect>
<rect x="394" y="86" width="11" height="11" rx="2" fill="#006d32"><title>2026-01-22: 7</title></rect>
<rect x="394" y="100" width="11" height="11" rx="2" fill="#0e4429"><title>2026-01-23: 1</title></rect>
<rect x="394" y="114" width="11" height="11" rx="2" fill="#161b22"><title>2026-01-24: 0</title></rect>
<rect x="408" y="30" width="11" height="11" rx="2" fill="#26a641"><title>2026-01-25: 10</title></rect>
<rect x="408" y="44" width="11" height="11" rx="2" fill="#0e4429"><title>2026-01-26: 2</title></rect>
<rect x="408" y="58" width="11" height="11" rx="2" fill="#0e4429"><title>2026-01-27: 1</title></rect>
<rect x="408" y="72" width="11" height="11" rx="2" fill="#0e4429"><title>2026-01-28: 1</title></rect>
<rect x="408" y="86" width="11" height="11" rx="2" fill="#161b22"><title>2026-01-29: 0</title></rect>
<rect x="408" y="100" width="11" height="11" rx="2" fill="#26a641"><title>2026-01-30: 8</title></rect>
<rect x="408" y="114" width="11" height="11" rx="2" fill="#26a641"><title>2026-01-31: 11</title></rect>
<rect x="422" y="30" width="11" height="11" rx="2" fill="#006d32"><title>2026-02-01: 4</title></rect>
<rect x="422" y="44" width="11" height="11" rx="2" fill="#0e4429"><title>2026-02-02: 3</title></rect>
<rect x="422" y="58" width="11" height="11" rx="2" fill="#39d353"><title>2026-02-03: 14</title></rect>
<rect x="422" y="72" width="11" height="11" rx="2" fill="#26a641"><title>2026-02-04: 10</title></rect>
<rect x="422" y="86" width="11" height="11" rx="2" fill="#26a641"><title>2026-02-05: 11</title></rect>
<rect x="422" y="100" width="11" height="11" rx="2" fill="#006d32"><title>2026-02-06: 5</title></rect>
<rect x="422" y="114" width="11" height="11" rx="2" fill="#26a641"><title>2026-02-07: 8</title></rect>
<rect x="436" y="30" width="11" height="11" rx="2" fill="#161b22"><title>2026-02-08: 0</title></rect>
<rect x="436" y="44" width="11" height="11" rx="2" fill="#39d353"><title>2026-02-09: 14</title></rect>
<rect x="436" y="58" width="11" height="11" rx="2" fill="#006d32"><title>2026-02-10: 5</title></rect>
<rect x="436" y="72" width="11" height="11" rx="2" fill="#161b22"><title>2026-02-11: 0</title></rect>
<rect x="436" y="86" width="11" height="11" rx="2" fill="#006d32"><title>2026-02-12: 4</title></rect>
<rect x="436" y="100" width="11" height="11" rx="2" fill="#0e4429"><title>2026-02-13: 1</title></rect>
<rect x="436" y="114" width="11" height="11" rx="2" fill="#006d32"><title>2026-02-14: 5</title></rect>
<rect x="450" y="30" width="11" height="11" rx="2" fill="#161b22"><title>2026-02-15: 0</title></rect>
<rect x="450" y="44" width="11" height="11" rx="2" fill="#39d353"><title>2026-02-16: 13</title></rect>
<rect x="450" y="58" width="11" height="11" rx="2" fill="#161b22"><title>2026-02-17: 0</title></rect>
<rect x="450" y="72" width="11" height="11" rx="2" fill="#006d32"><title>2026-02-18: 5</title></rect>
<rect x="450" y="86" width="11" height="11" rx="2" fill="#161b22"><title>2026-02-19: 0</title></rect>
<rect x="450" y="100" width="11" height="11" rx="2" fill="#006d32"><title>2026-02-20: 7</title></rect>
<rect x="450" y="114" width="11" height="11" rx="2" fill="#161b22"><title>2026-02-21: 0</title></rect>
<rect x="464" y="30" width="11" height="11" rx="2" fill="#006d32"><title>2026-02-22: 6</title></rect>
<rect x="464" y="44" width="11" height="11" rx="2" fill="#0e4429"><title>2026-02-23: 3</title></rect>
<rect x="464" y="58" width="11" height="11" rx="2" fill="#0e4429"><title>2026-02-24: 3</title></rect>
<rect x="464" y="72" width="11" height="11" rx="2" fill="#161b22"><title>2026-02-25: 0</title></rect>
<rect x="464" y="86" width="11" height="11" rx="2" fill="#161b22"><title>2026-02-26: 0</title></rect>
<rect x="464" y="100" width="11" height="11" rx="2" fill="#006d32"><title>2026-02-27: 6</title></rect>
<rect x="464" y="114" width="11" height="11" rx="2" fill="#161b22"><title>2026-02-28: 0</title></rect>
<rect x="478" y="30" width="11" height="11" rx="2" fill="#39d353"><title>2026-03-01: 12</title></rect>
<rect x="478" y="44" width="11" height="11" rx="2" fill="#161b22"><title>2026-03-02: 0</title></rect>
<rect x="478" y="58" width="11" height="11" rx="2" fill="#0e4429"><title>2026-03-03: 2</title></rect>
<rect x="478" y="72" width="11" height="11" rx="2" fill="#006d32"><title>2026-03-04: 6</title></rect>
<rect x="478" y="86" width="11" height="11" rx="2" fill="#0e4429"><title>2026-03-05: 3</title></rect>
<rect x="478" y="100" width="11" height="11" rx="2" fill="#161b22"><title>2026-03-06: 0</title></rect>
<rect x="478" y="114" width="11" height="11" rx="2" fill="#26a641"><title>2026-03-07: 11</title></rect>
<rect x="492" y="30" width="11" height="11" rx="2" fill="#161b22"><title>2026-03-08: 0</title></rect>
<rect x="492" y="44" width="11" height="11" rx="2" fill="#006d32"><title>2026-03-09: 4</title></rect>
<rect x="492" y="58" width="11" height="11" rx="2" fill="#0e4429"><title>2026-03-10: 3</title></rect>
<rect x="492" y="72" width="11" height="11" rx="2" fill="#006d32"><title>2026-03-11: 5</title></rect>
<rect x="492" y="86" width="11" height="11" rx="2" fill="#0e4429"><title>2026-03-12: 1</title></rect>
<rect x="492" y="100" width="11" height="11" rx="2" fill="#39d353"><title>2026-03-13: 13</title></rect>
<rect x="492" y="114" width="11" height="11" rx="2" fill="#0e4429"><title>2026-03-14: 3</title></rect>
<rect x="506" y="30" width="11" height="11" rx="2" fill="#006d32"><title>2026-03-15: 6</title></rect>
<rect x="506" y="44" width="11" height="11" rx="2" fill="#0e4429"><title>2026-03-16: 3</title></rect>
<rect x="506" y="58" width="11" height="11" rx="2" fill="#0e4429"><title>2026-03-17: 2</title></rect>
<rect x="506" y="72" width="11" height="11" rx="2" fill="#006d32"><title>2026-03-18: 5</title></rect>
<rect x="506" y="86" width="11" height="11" rx="2" fill="#161b22"><title>2026-03-19: 0</title></rect>
<rect x="506" y="100" width="11" height="11" rx="2" fill="#006d32"><title>2026-03-20: 7</title></rect>
<rect x="506" y="114" width="11" height="11" rx="2" fill="#006d32"><title>2026-03-21: 5</title></rect>
<rect x="520" y="30" width="11" height="11" rx="2" fill="#0e4429"><title>2026-03-22: 2</title></rect>
<rect x="520" y="44" width="11" height="11" rx="2" fill="#0e4429"><title>2026-03-23: 1</title></rect>
<rect x="520" y="58" width="11" height="11" rx="2" fill="#161b22"><title>2026-03-24: 0</title></rect>
<rect x="520" y="72" width="11" height="11" rx="2" fill="#161b22"><title>2026-03-25: 0</title></rect>
<rect x="520" y="86" width="11" height="11" rx="2" fill="#006d32"><title>2026-03-26: 6</title></rect>
<rect x="520" y="100" width="11" height="11" rx="2" fill="#0e4429"><title>2026-03-27: 2</title></rect>
<rect x="520" y="114" width="11" height="11" rx="2" fill="#006d32"><title>2026-03-28: 7</title></rect>
<rect x="534" y="30" width="11" height="11" rx="2" fill="#006d32"><title>2026-03-29: 5</title></rect>
<rect x="534" y="44" width="11" height="11" rx="2" fill="#006d32"><title>2026-03-30: 6</title></rect>
<rect x="534" y="58" width="11" height="11" rx="2" fill="#0e4429"><title>2026-03-31: 3</title></rect>
<rect x="534" y="72" width="11" height="11" rx="2" fill="#0e4429"><title>2026-04-01: 1</title></rect>
<rect x="534" y="86" width="11" height="11" rx="2" fill="#006d32"><title>2026-04-02: 5</title></rect>
<rect x="534" y="100" width="11" height="11" rx="2" fill="#006d32"><title>2026-04-03: 5</title></rect>
<rect x="534" y="114" width="11" height="11" rx="2" fill="#006d32"><title>2026-04-04: 5</title></rect>
<rect x="548" y="30" width="11" height="11" rx="2" fill="#161b22"><title>2026-04-05: 0</title></rect>
<rect x="548" y="44" width="11" height="11" rx="2" fill="#161b22"><title>2026-04-06: 0</title></rect>
<rect x="548" y="58" width="11" height="11" rx="2" fill="#0e4429"><title>2026-04-07: 1</title></rect>
<rect x="548" y="72" width="11" height="11" rx="2" fill="#0e4429"><title>2026-04-08: 3</title></rect>
<rect x="548" y="86" width="11" height="11" rx="2" fill="#0e4429"><title>2026-04-09: 3</title></rect>
<rect x="548" y="100" width="11" height="11" rx="2" fill="#006d32"><title>2026-04-10: 7</title></rect>
<rect x="548" y="114" width="11" height="11" rx="2" fill="#0e4429"><title>2026-04-11: 1</title></rect>
<rect x="562" y="30" width="11" height="11" rx="2" fill="#006d32"><title>2026-04-12: 4</title></rect>
<rect x="562" y="44" width="11" height="11" rx="2" fill="#26a641"><title>2026-04-13: 9</title></rect>
<rect x="562" y="58" width="11" height="11" rx="2" fill="#006d32"><title>2026-04-14: 5</title></rect>
<rect x="562" y="72" width="11" height="11" rx="2" fill="#161b22"><title>2026-04-15: 0</title></rect>
<rect x="562" y="86" width="11" height="11" rx="2" fill="#39d353"><title>2026-04-16: 15</title></rect>
<rect x="562" y="100" width="11" height="11" rx="2" fill="#161b22"><title>2026-04-17: 0</title></rect>
<rect x="562" y="114" width="11" height="11" rx="2" fill="#161b22"><title>2026-04-18: 0</title></rect>
<rect x="576" y="30" width="11" height="11" rx="2" fill="#006d32"><title>2026-04-19: 7</title></rect>
<rect x="576" y="44" width="11" height="11" rx="2" fill="#161b22"><title>2026-04-20: 0</title></rect>
<rect x="576" y="58" width="11" height="11" rx="2" fill="#0e4429"><title>2026-04-21: 3</title></rect>
<rect x="576" y="72" width="11" height="11" rx="2" fill="#39d353"><title>2026-04-22: 13</title></rect>
<rect x="576" y="86" width="11" height="11" rx="2" fill="#39d353"><title>2026-04-23: 15</title></rect>
<rect x="576" y="100" width="11" height="11" rx="2" fill="#0e4429"><title>2026-04-24: 3</title></rect>
<rect x="576" y="114" width="11" height="11" rx="2" fill="#39d353"><title>2026-04-25: 14</title></rect>
<rect x="590" y="30" width="11" height="11" rx="2" fill="#006d32"><title>2026-04-26: 7</title></rect>
<rect x="590" y="44" width="11" height="11" rx="2" fill="#39d353"><title>2026-04-27: 15</title></rect>
<rect x="590" y="58" width="11" height="11" rx="2" fill="#0e4429"><title>2026-04-28: 1</title></rect>
<rect x="590" y="72" width="11" height="11" rx="2" fill="#006d32"><title>2026-04-29: 6</title></rect>
<rect x="590" y="86" width="11" height="11" rx="2" fill="#006d32"><title>2026-04-30: 7</title></rect>
<rect x="590" y="100" width="11" height="11" rx="2" fill="#0e4429"><title>2026-05-01: 2</title></rect>
<rect x="590" y="114" width="11" height="11" rx="2" fill="#0e4429"><title>2026-05-02: 3</title></rect>
<rect x="604" y="30" width="11" height="11" rx="2" fill="#161b22"><title>2026-05-03: 0</title></rect>
<rect x="604" y="44" width="11" height="11" rx="2" fill="#161b22"><title>2026-05-04: 0</title></rect>
<rect x="604" y="58" width="11" height="11" rx="2" fill="#161b22"><title>2026-05-05: 0</title></rect>
<rect x="604" y="72" width="11" height="11" rx="2" fill="#0e4429"><title>2026-05-06: 1</title></rect>
<rect x="604" y="86" width="11" height="11" rx="2" fill="#161b22"><title>2026-05-07: 0</title></rect>
<rect x="604" y="100" width="11" height="11" rx="2" fill="#0e4429"><title>2026-05-08: 1</title></rect>
<rect x="604" y="114" width="11" height="11" rx="2" fill="#006d32"><title>2026-05-09: 4</title></rect>
<rect x="618" y="30" width="11" height="11" rx="2" fill="#0e4429"><title>2026-05-10: 2</title></rect>
<rect x="618" y="44" width="11" height="11" rx="2" fill="#0e4429"><title>2026-05-11: 2</title></rect>
<rect x="618" y="58" width="11" height="11" rx="2" fill="#161b22"><title>2026-05-12: 0</title></rect>
<rect x="618" y="72" width="11" height="11" rx="2" fill="#006d32"><title>2026-05-13: 7</title></rect>
<rect x="618" y="86" width="11" height="11" rx="2" fill="#26a641"><title>2026-05-14: 8</title></rect>
<rect x="618" y="100" width="11" height="11" rx="2" fill="#006d32"><title>2026-05-15: 7</title></rect>
<rect x="618" y="114" width="11" height="11" rx="2" fill="#0e4429"><title>2026-05-16: 2</title></rect>
<rect x="632" y="30" width="11" height="11" rx="2" fill="#161b22"><title>2026-05-17: 0</title></rect>
<rect x="632" y="44" width="11" height="11" rx="2" fill="#0e4429"><title>2026-05-18: 2</title></rect>
<rect x="632" y="58" width="11" height="11" rx="2" fill="#0e4429"><title>2026-05-19: 3</title></rect>
<rect x="632" y="72" width="11" height="11" rx="2" fill="#0e4429"><title>2026-05-20: 3</title></rect>
<rect x="632" y="86" width="11" height="11" rx="2" fill="#39d353"><title>2026-05-21: 15</title></rect>
<rect x="632" y="100" width="11" height="11" rx="2" fill="#161b22"><title>2026-05-22: 0</title></rect>
<rect x="632" y="114" width="11" height="11" rx="2" fill="#0e4429"><title>2026-05-23: 1</title></rect>
<rect x="646" y="30" width="11" height="11" rx="2" fill="#0e4429"><title>2026-05-24: 3</title></rect>
<rect x="646" y="44" width="11" height="11" rx="2" fill="#006d32"><title>2026-05-25: 7</title></rect>
<rect x="646" y="58" width="11" height="11" rx="2" fill="#006d32"><title>2026-05-26: 7</title></rect>
<rect x="646" y="72" width="11" height="11" rx="2" fill="#26a641"><title>2026-05-27: 8</title></rect>
<rect x="646" y="86" width="11" height="11" rx="2" fill="#26a641"><title>2026-05-28: 8</title></rect>
<rect x="646" y="100" width="11" height="11" rx="2" fill="#161b22"><title>2026-05-29: 0</title></rect>
<rect x="646" y="114" width="11" height="11" rx="2" fill="#0e4429"><title>2026-05-30: 2</title></rect>
<rect x="660" y="30" width="11" height="11" rx="2" fill="#161b22"><title>2026-05-31: 0</title></rect>
<rect x="660" y="44" width="11" height="11" rx="2" fill="#161b22"><title>2026-06-01: 0</title></rect>
<rect x="660" y="58" width="11" height="11" rx="2" fill="#161b22"><title>2026-06-02: 0</title></rect>
<rect x="660" y="72" width="11" height="11" rx="2" fill="#0e4429"><title>2026-06-03: 2</title></rect>
<rect x="660" y="86" width="11" height="11" rx="2" fill="#006d32"><title>2026-06-04: 7</title></rect>
<rect x="660" y="100" width="11" height="11" rx="2" fill="#161b22"><title>2026-06-05: 0</title></rect>
<rect x="660" y="114" width="11" height="11" rx="2" fill="#39d353"><title>2026-06-06: 14</title></rect>
<rect x="674" y="30" width="11" height="11" rx="2" fill="#161b22"><title>2026-06-07: 0</title></rect>
<rect x="674" y="44" width="11" height="11" rx="2" fill="#161b22"><title>2026-06-08: 0</title></rect>
<rect x="674" y="58" width="11" height="11" rx="2" fill="#161b22"><title>2026-06-09: 0</title></rect>
<rect x="674" y="72" width="11" height="11" rx="2" fill="#0e4429"><title>2026-06-10: 2</title></rect>
<rect x="674" y="86" width="11" height="11" rx="2" fill="#161b22"><title>2026-06-11: 0</title></rect>
<rect x="674" y="100" width="11" height="11" rx="2" fill="#161b22"><title>2026-06-12: 0</title></rect>
<rect x="674" y="114" width="11" height="11" rx="2" fill="#26a641"><title>2026-06-13: 8</title></rect>
<rect x="688" y="30" width="11" height="11" rx="2" fill="#006d32"><title>2026-06-14: 5</title></rect>
<rect x="688" y="44" width="11" height="11" rx="2" fill="#161b22"><title>2026-06-15: 0</title></rect>
<rect x="688" y="58" width="11" height="11" rx="2" fill="#161b22"><title>2026-06-16: 0</title></rect>
<rect x="688" y="72" width="11" height="11" rx="2" fill="#161b22"><title>2026-06-17: 0</title></rect>
<rect x="688" y="86" width="11" height="11" rx="2" fill="#161b22"><title>2026-06-18: 0</title></rect>
<rect x="688" y="100" width="11" height="11" rx="2" fill="#006d32"><title>2026-06-19: 5</title></rect>
<rect x="688" y="114" width="11" height="11" rx="2" fill="#0e4429"><title>2026-06-20: 2</title></rect>
<rect x="702" y="30" width="11" height="11" rx="2" fill="#006d32"><title>2026-06-21: 5</title></rect>
<rect x="702" y="44" width="11" height="11" rx="2" fill="#0e4429"><title>2026-06-22: 3</title></rect>
<rect x="702" y="58" width="11" height="11" rx="2" fill="#006d32"><title>2026-06-23: 5</title></rect>
<rect x="702" y="72" width="11" height="11" rx="2" fill="#26a641"><title>2026-06-24: 9</title></rect>
<rect x="702" y="86" width="11" height="11" rx="2" fill="#0e4429"><title>2026-06-25: 2</title></rect>
<rect x="702" y="100" width="11" height="11" rx="2" fill="#0e4429"><title>2026-06-26: 2</title></rect>
<rect x="702" y="114" width="11" height="11" rx="2" fill="#0e4429"><title>2026-06-27: 3</title></rect>
<rect x="716" y="30" width="11" height="11" rx="2" fill="#161b22"><title>2026-06-28: 0</title></rect>
<rect x="716" y="44" width="11" height="11" rx="2" fill="#0e4429"><title>2026-06-29: 3</title></rect>
<rect x="716" y="58" width="11" height="11" rx="2" fill="#161b22"><title>2026-06-30: 0</title></rect>
<rect x="716" y="72" width="11" height="11" rx="2" fill="#006d32"><title>2026-07-01: 6</title></rect>
<rect x="716" y="86" width="11" height="11" rx="2" fill="#006d32"><title>2026-07-02: 4</title></rect>
<rect x="716" y="100" width="11" height="11" rx="2" fill="#006d32"><title>2026-07-03: 4</title></rect>
<rect x="716" y="114" width="11" height="11" rx="2" fill="#161b22"><title>2026-07-04: 0</title></rect>
<rect x="730" y="30" width="11" height="11" rx="2" fill="#0e4429"><title>2026-07-05: 2</title></rect>
<rect x="730" y="44" width="11" height="11" rx="2" fill="#161b22"><title>2026-07-06: 0</title></rect>
<rect x="730" y="58" width="11" height="11" rx="2" fill="#0e4429"><title>2026-07-07: 1</title></rect>
<rect x="730" y="72" width="11" height="11" rx="2" fill="#006d32"><title>2026-07-08: 7</title></rect>
<rect x="730" y="86" width="11" height="11" rx="2" fill="#161b22"><title>2026-07-09: 0</title></rect>
<rect x="730" y="100" width="11" height="11" rx="2" fill="#39d353"><title>2026-07-10: 15</title></rect>
<rect x="730" y="114" width="11" height="11" rx="2" fill="#006d32"><title>2026-07-11: 7</title></rect>
<rect x="744" y="30" width="11" height="11" rx="2" fill="#161b22"><title>2026-07-12: 0</title></rect>
<rect x="744" y="44" width="11" height="11" rx="2" fill="#0e4429"><title>2026-07-13: 3</title></rect>
<rect x="744" y="58" width="11" height="11" rx="2" fill="#161b22"><title>2026-07-14: 0</title></rect>
<rect x="744" y="72" width="11" height="11" rx="2" fill="#006d32"><title>2026-07-15: 7</title></rect>
<rect x="744" y="86" width="11" height="11" rx="2" fill="#0e4429"><title>2026-07-16: 3</title></rect>
<rect x="744" y="100" width="11" height="11" rx="2" fill="#0e4429"><title>2026-07-17: 2</title></rect>
<rect x="744" y="114" width="11" height="11" rx="2" fill="#006d32"><title>2026-07-18: 4</title></rect>
<rect x="758" y="30" width="11" height="11" rx="2" fill="#161b22"><title>2026-07-19: 0</title></rect>
<rect x="758" y="44" width="11" height="11" rx="2" fill="#0e4429"><title>2026-07-20: 2</title></rect>
<rect x="758" y="58" width="11" height="11" rx="2" fill="#0e4429"><title>2026-07-21: 3</title></rect>
<rect x="758" y="72" width="11" height="11" rx="2" fill="#0e4429"><title>2026-07-22: 1</title></rect>
<rect x="758" y="86" width="11" height="11" rx="2" fill="#0e4429"><title>2026-07-23: 2</title></rect>
<rect x="758" y="100" width="11" height="11" rx="2" fill="#161b22"><title>2026-07-24: 0</title></rect>
<rect x="758" y="114" width="11" height="11" rx="2" fill="#161b22"><title>2026-07-25: 0</title></rect>
<text x="30" y="146" font-size="11">Less</text>
<rect x="68" y="136" width="11" height="11" rx="2" fill="#161b22"/>
<rect x="82" y="136" width="11" height="11" rx="2" fill="#0e4429"/>
<rect x="96" y="136" width="11" height="11" rx="2" fill="#006d32"/>
<rect x="110" y="136" width="11" height="11" rx="2" fill="#26a641"/>
<rect x="124" y="136" width="11" height="11" rx="2" fill="#39d353"/>
<text x="142" y="146" font-size="11">More</text>
</svg>